<svg xmlns="http://www.w3.org/2000/svg" version="1.1" xmlns:xlink="http://www.w3.org/1999/xlink" xmlns:svgjs="http://svgjs.dev/svgjs" width="2000" height="2000" viewBox="0 0 2000 2000"><g transform="matrix(1,0,0,1,-0.28443113772425477,-0.28443113772459583)"><svg viewBox="0 0 334 334" data-background-color="#ffffff" preserveAspectRatio="xMidYMid meet" height="2000" width="2000" xmlns="http://www.w3.org/2000/svg" xmlns:xlink="http://www.w3.org/1999/xlink"><g id="tight-bounds" transform="matrix(1,0,0,1,0.04749999999998522,0.04750000000001364)"><svg viewBox="0 0 333.90454557049503 333.90454557049503" height="333.90454557049503" width="333.90454557049503"><g><svg></svg></g><g><svg viewBox="0 0 333.90454557049503 333.90454557049503" height="333.90454557049503" width="333.90454557049503"><g><path d="M0 166.952c0-92.205 74.747-166.952 166.952-166.952 92.205 0 166.952 74.747 166.953 166.952 0 92.205-74.747 166.952-166.953 166.953-92.205 0-166.952-74.747-166.952-166.953zM166.952 316.63c82.665 0 149.677-67.013 149.678-149.678 0-82.665-67.013-149.677-149.678-149.677-82.665 0-149.677 67.013-149.677 149.677 0 82.665 67.013 149.677 149.677 149.678z" data-fill-palette-color="tertiary" fill="#8b3c7f" stroke="transparent"></path><ellipse rx="160.27418187383762" ry="160.27418187383762" cx="166.95227278524752" cy="166.95227278524752" fill="#8b3c7f" stroke="transparent" stroke-width="0" fill-opacity="1" data-fill-palette-color="tertiary"></ellipse></g><g transform="matrix(1,0,0,1,105.1990680053774,71.17305217166896)"><svg viewBox="0 0 123.50640955974025 191.55844122715712" height="191.55844122715712" width="123.50640955974025"><g><svg viewBox="0 0 123.50640955974025 191.55844122715712" height="191.55844122715712" width="123.50640955974025"><g><svg viewBox="0 0 123.50640955974025 191.55844122715712" height="191.55844122715712" width="123.50640955974025"><g><svg viewBox="0 0 123.50640955974025 191.55844122715712" height="191.55844122715712" width="123.50640955974025"><g id="textblocktransform"><svg viewBox="0 0 123.50640955974025 191.55844122715712" height="191.55844122715712" width="123.50640955974025" id="textblock"><g><svg viewBox="0 0 123.50640955974025 191.55844122715712" height="191.55844122715712" width="123.50640955974025"><g transform="matrix(1,0,0,1,0,0)"><svg width="123.50640955974025" viewBox="5.760000228881836 -37.869998931884766 24.420000076293945 37.869998931884766" height="191.55844122715712" data-palette-color="#ffffff"><path d="M20.34-11.72L20.34-11.72Q19.34-11.67 16.83-11.67 14.33-11.67 9.91-12.33L9.91-12.33 9.91 0 5.76 0 5.76-37.21Q12.87-37.87 19.9-37.87L19.9-37.87Q25.81-37.87 28.17-35.21L28.17-35.21Q30.18-32.96 30.18-27.78L30.18-27.78 30.18-24.9Q30.18-20.9 29.3-18.07L29.3-18.07Q27.42-12.16 20.34-11.72ZM20.07-34.35L20.07-34.35Q13.38-34.35 9.91-34.08L9.91-34.08 9.91-15.77Q14.18-15.21 17.52-15.21 20.85-15.21 22.3-15.69 23.75-16.16 24.56-17.29L24.56-17.29Q25.93-19.19 25.93-24.85L25.93-24.85 25.93-27.88Q25.93-31.37 24.56-32.86L24.56-32.86Q23.24-34.35 20.07-34.35Z" opacity="1" transform="matrix(1,0,0,1,0,0)" fill="#ffffff" class="undefined-text-0" data-fill-palette-color="quaternary" id="text-0"></path></svg></g></svg></g></svg></g></svg></g><g></g></svg></g></svg></g></svg></g></svg></g><defs></defs></svg><rect width="333.90454557049503" height="333.90454557049503" fill="none" stroke="none" visibility="hidden"></rect></g></svg></g></svg>